<?xml version="1.0" encoding="utf-8"?>
<!-- Generator: Adobe Illustrator 21.0.0, SVG Export Plug-In . SVG Version: 6.00 Build 0)  -->
<svg version="1.1" id="Calque_1" xmlns="http://www.w3.org/2000/svg" xmlns:xlink="http://www.w3.org/1999/xlink" x="0px" y="0px"
	 viewBox="0 0 1190.6 841.9" style="enable-background:new 0 0 1190.6 841.9;" xml:space="preserve">
<style type="text/css">
	.st0{fill:#ECEBEB;stroke:#ECEBEB;stroke-width:4;stroke-miterlimit:10;}
	.st1{fill:#EBEBEB;}
	.st2{fill:none;stroke:#EBEBEB;stroke-width:8;stroke-miterlimit:10;}
</style>
<g>
	<rect x="354.7" y="623.4" class="st0" width="69.4" height="5.4"/>
	<rect x="370.6" y="594.8" class="st0" width="33" height="2"/>
	<rect x="397.1" y="541.1" class="st0" width="33" height="2"/>
	<rect x="410.8" y="514.2" class="st0" width="33" height="2"/>
	<rect x="383.9" y="567.9" class="st0" width="33" height="2"/>
</g>
<g>
	<path class="st1" d="M485.4,219.1c0-1.2,0-2.3-0.1-3.5c-0.1-1.1-0.5-2.2-1.2-3.1l-4.3-5.5l-8.7-10.9l-8.7-10.9
		c-1.4-1.8-2.9-3.7-4.2-5.7c-1.3-2-2.5-4.1-3.5-6.3c-4.1-8.7-5.1-18.9-2.9-28.5c1.1-4.8,3.1-9.3,5.8-13.5c2.7-4.2,6.2-7.8,10.2-10.7
		c4-2.9,8.4-5.2,13-6.9c1.1-0.4,2.3-0.8,3.5-1.1l1.7-0.6c0.6-0.2,1.2-0.3,1.8-0.4l3.5-0.8c1.2-0.2,2.4-0.4,3.6-0.6
		c4.8-0.8,9.6-1.1,14.3-1.3c4.7-0.1,9.3-0.2,14-0.3c18.6-0.3,37.2-0.7,55.8-0.8c37.2-0.4,74.3-0.9,111.5-1.1l55.8-0.4
		c18.6-0.2,37.2-0.1,55.8-0.2l0.3,0l0.2,0c0.7,0.1,1.3,0.1,1.9,0.2l1.8,0.2c1.2,0.2,2.3,0.4,3.4,0.6c2.3,0.4,4.5,0.9,6.8,1.5
		c4.5,1.1,8.9,2.6,13.3,4.4c4.3,1.8,8.6,4,12.6,6.8c4,2.7,7.8,6,11,10c3.2,3.9,5.7,8.5,7.4,13.3c1.7,4.9,2.3,9.9,2.3,14.9
		c-0.1,9.9-2.7,19.2-6.2,27.7l0.5-2.4c0,0.5-0.1,0.9-0.2,1.4c0,0.2-0.1,0.5-0.2,0.7c-0.1,0.3-0.1,0.2-0.1,0.3l-0.3,0.8
		c-0.1,0.3-0.2,0.4-0.2,0.6l-0.2,0.5c-0.3,0.7-0.6,1.3-0.9,1.9c-0.6,1.2-1.2,2.4-1.7,3.6c-1.2,2.3-2.3,4.6-3.5,6.9
		c-2.4,4.6-4.7,9.1-7.1,13.6c-4.8,9-9.6,18-14.4,27l-14.6,26.9L799,294.1l-29.7,53.5c-9.9,17.8-20,35.6-30,53.4
		c-10,17.8-20,35.6-30.2,53.2c-1.3,2.3-2.5,4.3-3.6,6.5c-1.1,2.2-2.1,4.4-3.1,6.7c-1.9,4.5-3.3,9.2-4.5,14
		c-1.1,4.8-1.8,9.7-2.2,14.6c-0.2,2.4-0.2,5-0.3,7.6l-0.3,7.6c-1.7,40.8-3.4,81.5-5.6,122.3c-0.5-40.8-0.5-81.6-0.5-122.4l0-7.7
		c0-2.6,0-5,0.1-7.7c0.2-5.3,0.8-10.5,1.8-15.7c1-5.2,2.5-10.3,4.3-15.3c0.9-2.5,1.9-4.9,3.1-7.3c1.1-2.4,2.4-4.8,3.6-7
		c9.5-18,19.1-36,28.7-54l28.8-54l28.9-53.9l28.8-54c4.8-9,9.6-18,14.3-27c2.4-4.5,4.7-9,7-13.5c1.1-2.3,2.3-4.5,3.4-6.7
		c0.5-1.1,1.1-2.2,1.6-3.3c0.3-0.5,0.5-1.1,0.7-1.6l0.1-0.3c0-0.1,0.1-0.3,0.1-0.3c0,0,0-0.1,0-0.1c0,0,0-0.1,0,0.1
		c0,0.1-0.1,0.3-0.1,0.5c-0.1,0.3-0.1,0.6-0.1,0.9l0.5-2.4c3.1-7.5,5-15.3,5.1-22.8c-0.1-3.7-0.5-7.4-1.6-10.7
		c-1.2-3.4-2.9-6.5-5.2-9.3c-4.5-5.7-11.2-10-18.5-13.1c-3.7-1.6-7.5-2.8-11.4-3.8c-2-0.5-3.9-0.9-5.9-1.3c-1-0.2-2-0.4-3-0.5
		l-1.5-0.2l-1.3-0.2l0.5,0c-18.6-0.1-37.2,0-55.8-0.2l-55.8-0.4c-37.2-0.2-74.3-0.7-111.5-1.1c-18.6-0.2-37.2-0.6-55.8-0.8
		c-4.6-0.1-9.3-0.2-13.9-0.2c-4.5,0-9,0.2-13.5,0.8l-3.3,0.4l-3.3,0.7c-0.5,0.1-1.1,0.2-1.6,0.3l-1.6,0.4c-1.1,0.3-2.1,0.6-3.2,0.9
		c-4.2,1.4-8.2,3.2-11.8,5.7c-3.6,2.4-6.8,5.5-9.3,9c-2.5,3.5-4.4,7.6-5.6,11.8c-2.3,8.5-2,17.8,1.4,26.1c0.8,2.1,1.8,4.1,3,6.1
		c1.1,2,2.5,3.8,3.8,5.7l8.1,11.4l8,11.4l4,5.7c0.7,1,1.1,2.2,1.1,3.4C485.6,216.7,485.5,217.9,485.4,219.1z"/>
</g>
<g>
	<path class="st1" d="M689.6,652.3c0,0.5,0,1,0,1.5c0,0.5,0,1,0,1.5c0,1,0.1,2,0.2,2.9c0.3,1.9,0.8,3.9,1.6,5.6
		c1.8,3.5,3.8,7,5.6,10.5c1.8,3.6,3.5,7.2,4.9,11c0.7,1.9,1.3,3.8,1.8,5.9c0.5,2,0.8,4.1,0.6,6.3c0,0.5-0.1,1.1-0.2,1.7
		c-0.1,0.6-0.3,1.1-0.4,1.6c-0.3,1-0.6,2-1,2.9c-0.7,1.9-1.6,3.8-2.6,5.6c-2,3.6-4.6,7-7.7,9.8c-3.1,2.8-6.6,5.1-10.3,7
		c-1.9,0.8-3.8,1.8-5.8,2.4c-1,0.3-2,0.7-3,1l-3,0.8l-1.5,0.4l-1.5,0.3l-3,0.6c-2,0.3-4.1,0.5-6.1,0.8c-2,0.2-4.1,0.2-6.1,0.3
		c-2,0.1-4,0.1-6,0.2l-23.8,0.4l-47.6,0.8l-47.6,0.6c-15.9,0.2-31.8,0.4-47.6,0.5l-47.6,0.4c-15.9,0.1-31.8,0.3-47.6,0.3l-0.3,0
		l-0.3,0c-0.7-0.1-1.3-0.1-1.9-0.2l-1.7-0.2c-1.1-0.2-2.2-0.4-3.3-0.6c-2.2-0.5-4.4-1-6.6-1.6c-4.3-1.2-8.6-2.8-12.8-4.7
		c-4.1-2-8.2-4.4-11.9-7.3c-3.7-2.9-7.1-6.4-9.9-10.5c-5.5-8.1-8.1-18.1-7.8-27.5c0.2-9.4,2.4-18.3,5.5-26.6l-0.4,2.3
		c0-0.4,0.1-0.8,0.1-1.2c0-0.2,0.1-0.4,0.1-0.6c0.1-0.2,0.1-0.4,0.1-0.4l0.2-0.7l0.1-0.3l0.1-0.3l0.2-0.5c0.3-0.7,0.5-1.2,0.8-1.8
		l1.5-3.4l3-6.5l6.2-12.9c4.1-8.6,8.3-17.1,12.5-25.6c8.4-17,16.9-34,25.5-50.9c17.2-33.8,34.3-67.6,51.9-101.2
		c8.8-16.8,17.4-33.7,26.3-50.4l6.6-12.6c2.3-4.3,4.4-8.2,6.1-12.5c3.5-8.4,5.7-17.4,6.8-26.5c0.3-2.3,0.4-4.6,0.6-6.9l0.2-7.1
		l0.5-14.2l1-28.4l1.1-28.4l1.2-28.4l0.7,28.4l0.5,28.4l0.4,28.4l0.2,14.2l0.1,7.1c0,2.5-0.1,4.9-0.3,7.3c-0.3,4.9-1,9.7-2.1,14.5
		c-1,4.8-2.4,9.5-4.1,14.1c-0.8,2.3-1.8,4.6-2.8,6.8c-1,2.3-2.1,4.4-3.1,6.5l-6.2,12.8c-8.2,17.1-16.6,34.1-24.8,51.1
		c-16.5,34.1-33.3,68.1-49.9,102.2l-24.9,51.1l-12.4,25.5l-6.1,12.8l-2.9,6.4l-1.4,3.1c-0.2,0.5-0.4,1-0.6,1.5l-0.1,0.3l-0.1,0.2
		l0,0.1l0,0.1c0,0,0,0,0-0.2c0-0.1,0.1-0.3,0.1-0.4c0-0.3,0.1-0.5,0-0.8l-0.4,2.3c-2.8,7.3-4.6,14.9-4.7,22.2l0,1.4
		c0,0.5,0.1,0.9,0.1,1.4c0.1,0.9,0.1,1.8,0.2,2.7l0.4,2.6l0.1,0.7l0.2,0.6l0.3,1.3c0.9,3.4,2.3,6.5,4.3,9.4
		c3.9,5.8,9.9,10.2,16.7,13.5c3.4,1.6,7,3,10.7,4.1c1.9,0.5,3.7,1,5.6,1.4c0.9,0.2,1.9,0.4,2.8,0.5l1.4,0.2c0.4,0.1,1,0.1,1.3,0.2
		l-0.5,0c15.9,0,31.8,0.2,47.6,0.3l47.6,0.4c15.9,0.1,31.8,0.3,47.6,0.5l47.6,0.6l47.6,0.8l23.8,0.4c2,0,4,0.1,5.9,0.1
		c1.9,0,3.9,0,5.8-0.1c1.9-0.2,3.8-0.2,5.7-0.4l2.8-0.4l1.4-0.2l1.4-0.3l2.8-0.6c0.9-0.2,1.8-0.5,2.7-0.8c1.8-0.5,3.6-1.3,5.3-1.9
		c3.4-1.6,6.7-3.5,9.6-5.9c2.9-2.4,5.3-5.3,7.4-8.5c1-1.6,1.9-3.3,2.7-5c0.4-0.9,0.7-1.8,1.1-2.7c0.2-0.5,0.3-0.9,0.4-1.3
		c0.1-0.4,0.2-0.8,0.3-1.3c0.3-1.7,0.1-3.6-0.2-5.5c-0.3-1.9-0.8-3.8-1.4-5.6c-1.2-3.7-2.6-7.4-4.2-11c-1.5-3.7-3.3-7.2-4.9-10.9
		c-0.7-1.9-1.1-3.9-1.3-5.9c-0.1-1-0.1-2,0-3c0-0.5,0.1-1,0.1-1.5C689.6,653.3,689.6,652.8,689.6,652.3z"/>
</g>
<path class="st2" d="M554.3,213.7v140.8c0,9,1.9,17.9,5.7,26.1l53.4,116.1c3.8,8.2,5.7,17.1,5.7,26.1v106.3"/>
<path class="st1" d="M579.1,373.8l51,109.3c3.6,7.6,11.2,12.5,19.7,12.5h2.4c8.3,0,15.8-4.7,19.5-12.1l72.2-147
	c0,0-52.1,22.3-83.7,22.3c-31.6,0-53.9-22.3-53.9-22.3l-29.8-26v51.3C576.4,365.9,577.4,370.1,579.1,373.8z"/>
</svg>
