<?xml version="1.0" encoding="utf-8"?>
<!-- Generator: Adobe Illustrator 21.0.0, SVG Export Plug-In . SVG Version: 6.00 Build 0)  -->
<svg version="1.1" id="Calque_1" xmlns="http://www.w3.org/2000/svg" xmlns:xlink="http://www.w3.org/1999/xlink" x="0px" y="0px"
	 viewBox="0 0 1190.6 841.9" style="enable-background:new 0 0 1190.6 841.9;" xml:space="preserve">
<style type="text/css">
	.st0{fill:#ECEBEB;stroke:#ECEBEB;stroke-miterlimit:10;}
	.st1{fill:#EBEBEB;}
	.st2{fill:none;stroke:#EBEBEB;stroke-width:4;stroke-miterlimit:10;}
</style>
<g>
	<rect x="354.7" y="623.4" class="st0" width="69.4" height="5.4"/>
	<rect x="370.6" y="594.8" class="st0" width="33" height="2"/>
	<rect x="397.1" y="541.1" class="st0" width="33" height="2"/>
	<rect x="410.8" y="514.2" class="st0" width="33" height="2"/>
	<rect x="383.9" y="567.9" class="st0" width="33" height="2"/>
</g>
<g>
	<path class="st1" d="M485.4,219.1c0-1.2,0.1-2.3,0-3.5c-0.1-1.2-0.4-2.3-1.2-3.2l-4.3-5.5l-8.6-11l-8.5-11
		c-1.4-1.8-2.9-3.7-4.2-5.7c-1.3-2-2.4-4.1-3.4-6.2c-3.9-8.7-4.9-18.7-2.6-28c1.2-4.7,3.1-9.1,5.7-13.2c2.7-4,6.1-7.6,10-10.4
		c3.9-2.8,8.2-5.1,12.8-6.7c1.1-0.4,2.3-0.7,3.4-1.1l1.7-0.5c0.6-0.2,1.2-0.3,1.7-0.4l3.5-0.8c1.2-0.2,2.3-0.4,3.5-0.6
		c4.7-0.8,9.4-1,14.2-1.2c4.7-0.1,9.3-0.1,14-0.2l55.8-0.5c37.2-0.3,74.3-0.6,111.5-0.7l55.8-0.2l55.8-0.1l0.2,0l0.1,0
		c2.4,0.2,4.6,0.6,6.8,1c2.2,0.4,4.4,0.9,6.6,1.4c4.4,1.1,8.7,2.5,12.9,4.3c4.2,1.8,8.3,3.9,12.1,6.5c3.8,2.6,7.4,5.8,10.4,9.5
		c3,3.7,5.4,8,7,12.5c1.6,4.6,2.2,9.4,2.2,14.1c-0.1,9.4-2.5,18.4-5.9,26.8l0.3-1.5c0,0.3-0.1,0.6-0.1,1c0,0.2-0.1,0.3-0.1,0.5
		c-0.1,0.2,0,0.1-0.1,0.2l-0.2,0.7c-0.2,0.4-0.3,0.7-0.4,1c-0.3,0.6-0.6,1.3-0.8,1.9c-0.6,1.2-1.1,2.4-1.7,3.5
		c-1.1,2.3-2.3,4.6-3.5,6.9c-2.3,4.6-4.7,9.1-7.1,13.6c-4.8,9-9.6,18-14.4,27l-14.5,26.9L797,293l-29.5,53.6l-29.7,53.5
		c-9.9,17.8-19.9,35.6-29.9,53.4c-1.3,2.2-2.5,4.4-3.6,6.6c-1.1,2.2-2.1,4.5-3.1,6.8c-1.9,4.6-3.3,9.4-4.4,14.2
		c-1.1,4.9-1.8,9.8-2.1,14.8c-0.2,2.5-0.2,5.1-0.3,7.6l-0.3,7.6c-1.4,40.8-2.8,81.5-4.4,122.3c0-40.8,0.4-81.6,0.7-122.4l0.1-7.6
		c0-2.6,0-5.1,0.1-7.7c0.2-5.2,0.8-10.4,1.9-15.5c1-5.1,2.5-10.1,4.4-15c0.9-2.4,1.9-4.9,3.1-7.2c1.1-2.4,2.4-4.7,3.6-6.9l29-53.9
		l58-107.7l28.9-53.9c4.8-9,9.6-18,14.3-27c2.4-4.5,4.7-9,7-13.5c1.2-2.3,2.3-4.5,3.4-6.8c0.6-1.1,1.1-2.3,1.6-3.4
		c0.3-0.6,0.5-1.1,0.7-1.6c0.1-0.2,0.2-0.5,0.3-0.7l0.1-0.2c0,0,0-0.1,0,0c0,0.1,0,0.2-0.1,0.2c0,0.2,0,0.3,0,0.5l0.3-1.5
		c3.2-7.7,5.2-15.8,5.3-23.7c-0.1-4-0.5-7.9-1.8-11.5c-1.3-3.7-3.1-7.1-5.6-10.1c-4.9-6.1-11.9-10.6-19.5-13.8
		c-3.8-1.6-7.7-2.9-11.8-3.9c-2-0.5-4.1-1-6.1-1.3c-2-0.4-4.2-0.7-6-0.9l0.3,0l-55.8-0.1l-55.8-0.2c-37.2-0.1-74.3-0.4-111.5-0.7
		l-55.8-0.5c-4.6,0-9.3-0.1-13.9-0.1c-4.6,0-9.1,0.2-13.6,0.9l-3.4,0.5l-3.3,0.7c-0.6,0.1-1.1,0.2-1.7,0.3l-1.6,0.5
		c-1.1,0.3-2.2,0.6-3.2,1c-4.3,1.4-8.3,3.4-12,5.9c-3.7,2.5-6.9,5.7-9.4,9.3c-2.5,3.7-4.4,7.8-5.6,12.1c-2.3,8.7-1.8,18.2,1.7,26.6
		c0.9,2.1,1.9,4.1,3.1,6.1c1.2,2,2.5,3.8,3.9,5.7l8.2,11.3l8.2,11.3l4.1,5.7c0.7,0.9,1.1,2.1,1.1,3.3
		C485.6,216.7,485.4,217.9,485.4,219.1z"/>
</g>
<g>
	<path class="st1" d="M689.6,652.3c0,0.5,0,1,0,1.5c0,0.5,0,1,0,1.5c0,1,0,2,0.2,3c0.2,2,0.7,3.9,1.5,5.7c1.8,3.5,3.7,7,5.5,10.6
		c1.8,3.6,3.4,7.2,4.8,11c0.7,1.9,1.3,3.8,1.7,5.8c0.4,2,0.7,4,0.5,6.2c0,0.5-0.1,1.1-0.2,1.6c-0.1,0.6-0.3,1-0.4,1.5
		c-0.3,1-0.6,1.9-1,2.9c-0.7,1.9-1.6,3.7-2.6,5.5c-2,3.5-4.5,6.8-7.6,9.6c-3.1,2.7-6.5,5-10.2,6.8c-1.9,0.8-3.7,1.7-5.7,2.3
		c-1,0.3-1.9,0.7-2.9,1l-3,0.8l-1.5,0.4l-1.5,0.3l-3,0.5c-2,0.3-4,0.5-6,0.7c-2,0.1-4,0.2-6.1,0.3c-2,0.1-4,0.1-6,0.1l-23.8,0.3
		l-47.6,0.5c-31.8,0.2-63.5,0.6-95.3,0.7l-47.6,0.2l-47.6,0.2l-0.2,0l-0.2,0c-1.3-0.1-2.3-0.3-3.4-0.4c-1.1-0.2-2.2-0.4-3.2-0.6
		c-2.1-0.4-4.3-1-6.4-1.5c-4.2-1.2-8.3-2.7-12.3-4.6c-4-1.9-7.9-4.2-11.4-7c-3.5-2.8-6.8-6.1-9.4-9.9c-5.2-7.6-7.7-17.1-7.4-26
		c0.2-9,2.3-17.7,5.4-25.8l-0.3,1.4c0-0.3,0-0.6,0.1-0.8l0.1-0.4c0-0.2,0.1-0.2,0.1-0.3l0.2-0.6c0.1-0.4,0.2-0.7,0.4-1
		c0.2-0.6,0.5-1.2,0.7-1.8l1.5-3.3l3-6.5l6.1-12.9l12.5-25.6c8.4-17,16.8-34,25.3-50.9c17.1-33.9,34.1-67.7,51.5-101.4
		c8.7-16.9,17.3-33.7,26-50.6l6.5-12.6c2.2-4.2,4.3-8.3,6-12.6c3.5-8.6,5.7-17.7,6.7-26.9c0.3-2.3,0.4-4.6,0.5-6.9l0.2-7.1l0.3-14.2
		l0.7-28.4l0.8-28.4l0.9-28.4l0.3,28.4l0.2,28.4l0.2,28.4l0.1,14.2l0,7.1c0,2.4-0.1,4.8-0.3,7.2c-0.4,4.8-1.1,9.6-2.2,14.3
		c-1,4.7-2.4,9.4-4.1,13.9c-0.8,2.3-1.8,4.5-2.8,6.7c-1,2.2-2.1,4.3-3.1,6.4l-6.3,12.8l-25.1,51l-50.3,102l-25.1,51l-12.4,25.6
		l-6.1,12.8l-2.9,6.4l-1.4,3.2c-0.2,0.5-0.4,1.1-0.6,1.5c-0.1,0.2-0.2,0.5-0.2,0.7l-0.1,0.2c0,0,0,0,0-0.1c0-0.1,0-0.1,0-0.2
		c0-0.1,0-0.3,0-0.4l-0.3,1.4c-2.8,7.5-4.7,15.4-4.9,23.1l0,1.4c0,0.5,0.1,1,0.1,1.4c0.1,1,0.1,1.9,0.2,2.9l0.4,2.8l0.1,0.7l0.2,0.7
		l0.4,1.4c1,3.6,2.5,7.1,4.6,10.2c4.2,6.2,10.6,11,17.6,14.4c3.5,1.7,7.3,3.1,11.1,4.2c1.9,0.5,3.9,1,5.8,1.4c1,0.2,2,0.4,2.9,0.5
		c0.9,0.2,2,0.3,2.8,0.4l-0.3,0l47.6,0.2l47.6,0.2c31.8,0.1,63.5,0.5,95.3,0.7l47.6,0.5l23.8,0.3c2,0,4,0.1,5.9,0.1
		c1.9,0,3.9,0,5.8-0.1c1.9-0.2,3.9-0.3,5.8-0.5l2.9-0.4l1.4-0.2l1.4-0.3l2.8-0.6c0.9-0.2,1.8-0.6,2.8-0.8c1.9-0.5,3.6-1.3,5.4-2
		c3.5-1.6,6.8-3.6,9.7-6.1c2.9-2.5,5.4-5.5,7.4-8.8c1-1.6,1.9-3.4,2.6-5.2c0.4-0.9,0.7-1.8,1-2.7c0.2-0.5,0.3-0.9,0.4-1.3
		c0.1-0.4,0.2-0.9,0.3-1.3c0.2-1.8,0-3.8-0.3-5.7c-0.3-1.9-0.9-3.8-1.4-5.7c-1.2-3.7-2.7-7.4-4.3-11c-1.6-3.6-3.4-7.2-5-10.8
		c-0.7-1.9-1.2-3.9-1.3-5.8c-0.1-1-0.1-2,0-3c0-0.5,0.1-1,0.1-1.5C689.6,653.3,689.6,652.8,689.6,652.3z"/>
</g>
<path class="st2" d="M554.3,213.7v140.8c0,9,1.9,17.9,5.7,26.1l53.4,116.1c3.8,8.2,5.7,17.1,5.7,26.1v106.3"/>
<path class="st1" d="M579.1,373.8l51,109.3c3.6,7.6,11.2,12.5,19.7,12.5h2.4c8.3,0,15.8-4.7,19.5-12.1l72.2-147
	c0,0-52.1,22.3-83.7,22.3c-31.6,0-53.9-22.3-53.9-22.3l-29.8-26v51.3C576.4,365.9,577.4,370.1,579.1,373.8z"/>
</svg>
